<svg xmlns="http://www.w3.org/2000/svg" viewBox="0 0 280 80" width="280" height="80" role="img" aria-label="SHEIN">
  <path fill="#000000" d="M40.4 8.2c-3.5 0-6.6 1-9.2 3-2.5 1.9-3.8 4.4-3.8 7.4 0 2.6 1 4.7 3 6.3 1.8 1.4 4.4 2.7 7.8 3.7l8.7 2.6c1.3.4 2.2.9 2.7 1.5.5.6.7 1.3.7 2.2 0 1.2-.5 2.1-1.5 2.8-1 .7-2.4 1-4.1 1-2.2 0-3.9-.5-5.1-1.6-1.2-1.1-1.8-2.6-1.8-4.6H22.4c0 3.2.9 6 2.6 8.4 1.8 2.4 4.2 4.2 7.3 5.4 3.1 1.2 6.7 1.9 10.8 1.9 3.7 0 6.9-.6 9.7-1.8 2.8-1.2 4.9-2.9 6.4-5.1 1.5-2.2 2.3-4.7 2.3-7.6 0-2.7-.8-5-2.5-6.9-1.6-1.9-4-3.4-7.1-4.4l-9.2-2.9c-1.4-.4-2.4-.9-3-1.5-.6-.6-.9-1.3-.9-2.2 0-1.2.5-2.1 1.4-2.7 1-.7 2.3-1 3.9-1 1.9 0 3.4.4 4.5 1.3 1.1.9 1.7 2.1 1.7 3.7h14.6c0-2.9-.8-5.5-2.4-7.7-1.6-2.2-3.8-3.9-6.7-5.1-2.9-1.2-6.2-1.8-10-1.8zM76.5 9v59.3h14.8V45.3h17.2v23h14.8V9h-14.8v22.7H91.3V9zM133.6 9v59.3h14.8V9zM165.5 9v59.3h14.8V42.4l16.3 25.9h17.5V9h-14.8v25.9L182.9 9zM225.6 9v59.3h51.4V55.4h-36.6V45.3h31.2V32.4h-31.2V22.3h36.6V9z"/>
</svg>
